<mxfile host="app.diagrams.net" modified="2023-11-28T17:08:39.445Z" agent="Mozilla/5.0 (Windows NT 10.0; Win64; x64) AppleWebKit/537.36 (KHTML, like Gecko) Chrome/119.0.0.0 Safari/537.36" version="22.1.4" etag="oFhEWMmEBjBkj2F75CTR" type="device">
  <diagram id="4AyoT2TZgmqXXbZ1-AqA" name="Pagina-1">
    <mxGraphModel dx="1050" dy="566" grid="1" gridSize="10" guides="1" tooltips="1" connect="1" arrows="1" fold="1" page="1" pageScale="1" pageWidth="827" pageHeight="1169" math="0" shadow="0">
      <root>
        <mxCell id="0" />
        <mxCell id="1" parent="0" />
        <mxCell id="CdkKLYl6U7JJv2I8xQ-f-1" value="Player x" style="shape=umlActor;verticalLabelPosition=bottom;verticalAlign=top;html=1;outlineConnect=0;" vertex="1" parent="1">
          <mxGeometry x="230" y="320" width="30" height="60" as="geometry" />
        </mxCell>
        <mxCell id="CdkKLYl6U7JJv2I8xQ-f-2" value="SCARABEO" style="ellipse;whiteSpace=wrap;html=1;" vertex="1" parent="1">
          <mxGeometry x="348" y="30" width="144" height="90" as="geometry" />
        </mxCell>
        <mxCell id="CdkKLYl6U7JJv2I8xQ-f-3" value="" style="endArrow=classic;html=1;rounded=0;" edge="1" parent="1" source="CdkKLYl6U7JJv2I8xQ-f-1" target="CdkKLYl6U7JJv2I8xQ-f-4">
          <mxGeometry width="50" height="50" relative="1" as="geometry">
            <mxPoint x="130" y="250" as="sourcePoint" />
            <mxPoint x="230" y="290" as="targetPoint" />
          </mxGeometry>
        </mxCell>
        <mxCell id="CdkKLYl6U7JJv2I8xQ-f-4" value="ingresso in partita" style="ellipse;whiteSpace=wrap;html=1;" vertex="1" parent="1">
          <mxGeometry x="230" y="190" width="110" height="50" as="geometry" />
        </mxCell>
        <mxCell id="CdkKLYl6U7JJv2I8xQ-f-5" value="Il numero di giocatori Ã¨ variabile" style="rounded=1;whiteSpace=wrap;html=1;" vertex="1" parent="1">
          <mxGeometry x="320" y="130" width="200" height="30" as="geometry" />
        </mxCell>
        <mxCell id="CdkKLYl6U7JJv2I8xQ-f-6" value="" style="endArrow=classic;html=1;rounded=0;entryX=0;entryY=0.625;entryDx=0;entryDy=0;entryPerimeter=0;" edge="1" parent="1" source="CdkKLYl6U7JJv2I8xQ-f-1" target="CdkKLYl6U7JJv2I8xQ-f-7">
          <mxGeometry width="50" height="50" relative="1" as="geometry">
            <mxPoint x="270" y="360" as="sourcePoint" />
            <mxPoint x="390" y="310" as="targetPoint" />
          </mxGeometry>
        </mxCell>
        <mxCell id="CdkKLYl6U7JJv2I8xQ-f-7" value="posizionamento lettere nella tabella &lt;br&gt;per realizzare una parola" style="ellipse;whiteSpace=wrap;html=1;" vertex="1" parent="1">
          <mxGeometry x="380" y="170" width="240" height="60" as="geometry" />
        </mxCell>
        <mxCell id="CdkKLYl6U7JJv2I8xQ-f-8" value="" style="endArrow=classic;html=1;rounded=0;entryX=0.016;entryY=0.69;entryDx=0;entryDy=0;entryPerimeter=0;" edge="1" parent="1" source="CdkKLYl6U7JJv2I8xQ-f-1" target="CdkKLYl6U7JJv2I8xQ-f-9">
          <mxGeometry width="50" height="50" relative="1" as="geometry">
            <mxPoint x="270" y="363" as="sourcePoint" />
            <mxPoint x="380" y="340" as="targetPoint" />
          </mxGeometry>
        </mxCell>
        <mxCell id="CdkKLYl6U7JJv2I8xQ-f-9" value="invio parola&amp;nbsp;" style="ellipse;whiteSpace=wrap;html=1;" vertex="1" parent="1">
          <mxGeometry x="420" y="250" width="110" height="40" as="geometry" />
        </mxCell>
        <mxCell id="CdkKLYl6U7JJv2I8xQ-f-10" value="visualizzazione parole inserite da ogni giocatore" style="ellipse;whiteSpace=wrap;html=1;" vertex="1" parent="1">
          <mxGeometry x="430" y="300" width="260" height="50" as="geometry" />
        </mxCell>
        <mxCell id="CdkKLYl6U7JJv2I8xQ-f-11" value="" style="endArrow=classic;html=1;rounded=0;entryX=0;entryY=0.5;entryDx=0;entryDy=0;" edge="1" parent="1" source="CdkKLYl6U7JJv2I8xQ-f-1" target="CdkKLYl6U7JJv2I8xQ-f-10">
          <mxGeometry width="50" height="50" relative="1" as="geometry">
            <mxPoint x="270" y="379" as="sourcePoint" />
            <mxPoint x="430" y="340" as="targetPoint" />
          </mxGeometry>
        </mxCell>
        <mxCell id="CdkKLYl6U7JJv2I8xQ-f-12" value="" style="endArrow=classic;html=1;rounded=0;" edge="1" parent="1" source="CdkKLYl6U7JJv2I8xQ-f-1">
          <mxGeometry width="50" height="50" relative="1" as="geometry">
            <mxPoint x="300" y="410" as="sourcePoint" />
            <mxPoint x="430" y="390" as="targetPoint" />
          </mxGeometry>
        </mxCell>
        <mxCell id="CdkKLYl6U7JJv2I8xQ-f-13" value="visualizzazione status &lt;br&gt;(vittoria/sconfitta/partita in corso)" style="ellipse;whiteSpace=wrap;html=1;" vertex="1" parent="1">
          <mxGeometry x="430" y="370" width="220" height="60" as="geometry" />
        </mxCell>
      </root>
    </mxGraphModel>
  </diagram>
</mxfile>
